<svg xmlns="http://www.w3.org/2000/svg" width="512" height="512" viewBox="0 0 512 512">
  <rect width="512" height="512" rx="80" fill="#0a0614"/>
  <defs>
    <linearGradient id="g1" x1="0" y1="0" x2="1" y2="1">
      <stop offset="0%" stop-color="#a78bfa"/>
      <stop offset="100%" stop-color="#06b6d4"/>
    </linearGradient>
    <linearGradient id="g2" x1="0" y1="0" x2="1" y2="1">
      <stop offset="0%" stop-color="#7c3aed"/>
      <stop offset="100%" stop-color="#4f46e5"/>
    </linearGradient>
  </defs>
  <!-- Outer hex ring -->
  <polygon points="256,80 368,144 368,272 256,336 144,272 144,144" fill="none" stroke="url(#g1)" stroke-width="8"/>
  <!-- Inner hex filled -->
  <polygon points="256,100 348,155 348,265 256,320 164,265 164,155" fill="url(#g2)"/>
  <!-- Lightning bolt -->
  <polygon points="276,140 236,240 262,240 230,370 298,250 268,250 296,140" fill="white"/>
  <!-- Corner dots -->
  <circle cx="144" cy="208" r="12" fill="#a78bfa"/>
  <circle cx="368" cy="208" r="12" fill="#06b6d4"/>
  <circle cx="256" cy="80" r="10" fill="#a78bfa" opacity="0.7"/>
  <circle cx="256" cy="336" r="10" fill="#06b6d4" opacity="0.7"/>
</svg>
