<svg xmlns="http://www.w3.org/2000/svg" width="1200" height="630" viewBox="0 0 1200 630">
  <rect width="1200" height="630" fill="#0a0614"/>
  <!-- Grid lines -->
  <line x1="0" y1="210" x2="1200" y2="210" stroke="#7c3aed" stroke-width="0.5" opacity="0.15"/>
  <line x1="0" y1="420" x2="1200" y2="420" stroke="#7c3aed" stroke-width="0.5" opacity="0.15"/>
  <line x1="300" y1="0" x2="300" y2="630" stroke="#7c3aed" stroke-width="0.5" opacity="0.15"/>
  <line x1="600" y1="0" x2="600" y2="630" stroke="#7c3aed" stroke-width="0.5" opacity="0.15"/>
  <line x1="900" y1="0" x2="900" y2="630" stroke="#7c3aed" stroke-width="0.5" opacity="0.15"/>
  <!-- Glow circles -->
  <circle cx="200" cy="315" r="300" fill="#7c3aed" opacity="0.06"/>
  <circle cx="1000" cy="315" r="280" fill="#06b6d4" opacity="0.05"/>
  <defs>
    <linearGradient id="g1" x1="0" y1="0" x2="1" y2="1">
      <stop offset="0%" stop-color="#a78bfa"/>
      <stop offset="100%" stop-color="#06b6d4"/>
    </linearGradient>
    <linearGradient id="g2" x1="0" y1="0" x2="1" y2="1">
      <stop offset="0%" stop-color="#7c3aed"/>
      <stop offset="100%" stop-color="#4f46e5"/>
    </linearGradient>
    <linearGradient id="gt" x1="0" y1="0" x2="1" y2="0">
      <stop offset="0%" stop-color="#a78bfa"/>
      <stop offset="100%" stop-color="#06b6d4"/>
    </linearGradient>
  </defs>
  <!-- Logo icon -->
  <polygon points="130,215 186,183 242,215 242,279 186,311 130,279" fill="none" stroke="url(#g1)" stroke-width="4"/>
  <polygon points="136,219 186,190 236,219 236,275 186,304 136,275" fill="url(#g2)"/>
  <polygon points="194,202 176,238 186,238 174,275 206,237 195,237 204,202" fill="white"/>
  <!-- Wordmark -->
  <text x="270" y="280" font-family="Arial Black, sans-serif" font-size="96" font-weight="900" fill="url(#gt)" letter-spacing="-3">Rayix AI</text>
  <!-- Tagline -->
  <rect x="270" y="305" width="660" height="2" fill="#7c3aed" opacity="0.4"/>
  <text x="270" y="340" font-family="Arial, sans-serif" font-size="22" fill="#8b7fa8" letter-spacing="4">AI TOOLS UNIVERSE</text>
  <!-- Stats pills -->
  <rect x="270" y="380" width="160" height="44" rx="22" fill="rgba(124,58,237,0.15)" stroke="#7c3aed" stroke-width="1" opacity="0.6"/>
  <text x="350" y="408" font-family="Arial, sans-serif" font-size="16" fill="#a78bfa" text-anchor="middle" font-weight="bold">1000+ Tools</text>
  <rect x="448" y="380" width="160" height="44" rx="22" fill="rgba(6,182,212,0.1)" stroke="#06b6d4" stroke-width="1" opacity="0.6"/>
  <text x="528" y="408" font-family="Arial, sans-serif" font-size="16" fill="#67e8f9" text-anchor="middle" font-weight="bold">36 Categories</text>
  <rect x="626" y="380" width="120" height="44" rx="22" fill="rgba(16,185,129,0.1)" stroke="#10b981" stroke-width="1" opacity="0.6"/>
  <text x="686" y="408" font-family="Arial, sans-serif" font-size="16" fill="#6ee7b7" text-anchor="middle" font-weight="bold">100% Free</text>
  <!-- URL -->
  <text x="270" y="480" font-family="Arial, sans-serif" font-size="20" fill="#4b5563" letter-spacing="1">rayix-ai.vercel.app</text>
</svg>
